REM DIRINDEX 1\2\4,1\2\5,1\2\6,1\2\7,1\3\8,1\3\9
REM DIRNAME cjc037,folder01,folder02,folder03,folder04,folder05,folder06,folder07,folder08
TITLE ""
FILE "Disc1Track02.mp3" MP3
  TRACK 01 AUDIO
    TITLE "0:"
    INDEX 01 00:00:00
  TRACK 02 AUDIO
    TITLE "4:cjc037_0070"
    INDEX 01 00:00:05
  TRACK 03 AUDIO
    TITLE "0:"
    INDEX 01 00:01:28
  TRACK 04 AUDIO
    TITLE "4:cjc037_0071"
    INDEX 01 00:02:22
  TRACK 05 AUDIO
    TITLE "0:"
    INDEX 01 00:03:53
  TRACK 06 AUDIO
    TITLE "5:cjc037_0072"
    INDEX 01 00:04:27
  TRACK 07 AUDIO
    TITLE "0:"
    INDEX 01 00:06:59
  TRACK 08 AUDIO
    TITLE "6:cjc037_0073"
    INDEX 01 00:10:25
  TRACK 09 AUDIO
    TITLE "0:"
    INDEX 01 00:12:32
  TRACK 10 AUDIO
    TITLE "7:cjc037_0074"
    INDEX 01 00:15:68
  TRACK 11 AUDIO
    TITLE "0:"
    INDEX 01 00:17:41
  TRACK 12 AUDIO
    TITLE "4:cjc037_0075"
    INDEX 01 00:20:02
  TRACK 13 AUDIO
    TITLE "0:"
    INDEX 01 00:21:29
  TRACK 14 AUDIO
    TITLE "5:cjc037_0076"
    INDEX 01 00:22:05
  TRACK 15 AUDIO
    TITLE "0:"
    INDEX 01 00:24:49
  TRACK 16 AUDIO
    TITLE "6:cjc037_0077"
    INDEX 01 00:28:12
  TRACK 17 AUDIO
    TITLE "0:"
    INDEX 01 00:30:69
  TRACK 18 AUDIO
    TITLE "7:cjc037_0078"
    INDEX 01 00:34:28
  TRACK 19 AUDIO
    TITLE "0:"
    INDEX 01 00:36:44
  TRACK 20 AUDIO
    TITLE "4:cjc037_0079"
    INDEX 01 00:39:02
  TRACK 21 AUDIO
    TITLE "0:"
    INDEX 01 00:40:13
  TRACK 22 AUDIO
    TITLE "5:cjc037_0080"
    INDEX 01 00:40:66
  TRACK 23 AUDIO
    TITLE "0:"
    INDEX 01 00:45:06
  TRACK 24 AUDIO
    TITLE "6:cjc037_0081"
    INDEX 01 00:48:42
  TRACK 25 AUDIO
    TITLE "0:"
    INDEX 01 00:50:70
  TRACK 26 AUDIO
    TITLE "7:cjc037_0082"
    INDEX 01 00:54:30
  TRACK 27 AUDIO
    TITLE "0:"
    INDEX 01 00:56:24
  TRACK 28 AUDIO
    TITLE "4:cjc037_0083"
    INDEX 01 00:58:58
  TRACK 29 AUDIO
    TITLE "0:"
    INDEX 01 01:00:19
  TRACK 30 AUDIO
    TITLE "5:cjc037_0084"
    INDEX 01 01:00:70
  TRACK 31 AUDIO
    TITLE "0:"
    INDEX 01 01:04:21
  TRACK 32 AUDIO
    TITLE "6:cjc037_0085"
    INDEX 01 01:07:57
  TRACK 33 AUDIO
    TITLE "0:"
    INDEX 01 01:10:57
  TRACK 34 AUDIO
    TITLE "7:cjc037_0086"
    INDEX 01 01:14:17
  TRACK 35 AUDIO
    TITLE "0:"
    INDEX 01 01:16:44
  TRACK 36 AUDIO
    TITLE "4:cjc037_0087"
    INDEX 01 01:19:01
  TRACK 37 AUDIO
    TITLE "0:"
    INDEX 01 01:20:26
  TRACK 38 AUDIO
    TITLE "5:cjc037_0088"
    INDEX 01 01:21:04
  TRACK 39 AUDIO
    TITLE "0:"
    INDEX 01 01:24:49
  TRACK 40 AUDIO
    TITLE "6:cjc037_0089"
    INDEX 01 01:28:06
  TRACK 41 AUDIO
    TITLE "0:"
    INDEX 01 01:30:40
  TRACK 42 AUDIO
    TITLE "7:cjc037_0090"
    INDEX 01 01:33:74
  TRACK 43 AUDIO
    TITLE "0:"
    INDEX 01 01:35:71
  TRACK 44 AUDIO
    TITLE "4:cjc037_0091"
    INDEX 01 01:38:32
  TRACK 45 AUDIO
    TITLE "0:"
    INDEX 01 01:39:68
  TRACK 46 AUDIO
    TITLE "5:cjc037_0092"
    INDEX 01 01:40:44
  TRACK 47 AUDIO
    TITLE "0:"
    INDEX 01 01:44:07
  TRACK 48 AUDIO
    TITLE "6:cjc037_0093"
    INDEX 01 01:47:42
  TRACK 49 AUDIO
    TITLE "0:"
    INDEX 01 01:50:11
  TRACK 50 AUDIO
    TITLE "7:cjc037_0094"
    INDEX 01 01:53:45
  TRACK 51 AUDIO
    TITLE "0:"
    INDEX 01 01:55:54
  TRACK 52 AUDIO
    TITLE "4:cjc037_0095"
    INDEX 01 01:58:13
  TRACK 53 AUDIO
    TITLE "0:"
    INDEX 01 01:59:53
  TRACK 54 AUDIO
    TITLE "5:cjc037_0096"
    INDEX 01 02:00:27
  TRACK 55 AUDIO
    TITLE "0:"
    INDEX 01 02:03:12
  TRACK 56 AUDIO
    TITLE "6:cjc037_0097"
    INDEX 01 02:06:48
  TRACK 57 AUDIO
    TITLE "0:"
    INDEX 01 02:09:24
  TRACK 58 AUDIO
    TITLE "7:cjc037_0098"
    INDEX 01 02:12:60
  TRACK 59 AUDIO
    TITLE "0:"
    INDEX 01 02:14:69
  TRACK 60 AUDIO
    TITLE "4:cjc037_0099"
    INDEX 01 02:17:30
  TRACK 61 AUDIO
    TITLE "0:"
    INDEX 01 02:18:53
  TRACK 62 AUDIO
    TITLE "5:cjc037_0100"
    INDEX 01 02:19:35
  TRACK 63 AUDIO
    TITLE "0:"
    INDEX 01 02:22:00
  TRACK 64 AUDIO
    TITLE "6:cjc037_0101"
    INDEX 01 02:25:35
  TRACK 65 AUDIO
    TITLE "0:"
    INDEX 01 02:27:50
  TRACK 66 AUDIO
    TITLE "7:cjc037_0102"
    INDEX 01 02:31:10
  TRACK 67 AUDIO
    TITLE "0:"
    INDEX 01 02:32:71
  TRACK 68 AUDIO
    TITLE "4:cjc037_0103"
    INDEX 01 02:35:30
  TRACK 69 AUDIO
    TITLE "0:"
    INDEX 01 02:36:64
  TRACK 70 AUDIO
    TITLE "5:cjc037_0104"
    INDEX 01 02:37:38
  TRACK 71 AUDIO
    TITLE "0:"
    INDEX 01 02:41:40
  TRACK 72 AUDIO
    TITLE "6:cjc037_0105"
    INDEX 01 02:44:74
  TRACK 73 AUDIO
    TITLE "0:"
    INDEX 01 02:48:05
  TRACK 74 AUDIO
    TITLE "7:cjc037_0106"
    INDEX 01 02:51:40
  TRACK 75 AUDIO
    TITLE "0:"
    INDEX 01 02:54:04
  TRACK 76 AUDIO
    TITLE "4:cjc037_0107"
    INDEX 01 02:56:38
  TRACK 77 AUDIO
    TITLE "0:"
    INDEX 01 02:57:70
  TRACK 78 AUDIO
    TITLE "5:cjc037_0108"
    INDEX 01 02:58:48
  TRACK 79 AUDIO
    TITLE "0:"
    INDEX 01 03:03:08
  TRACK 80 AUDIO
    TITLE "6:cjc037_0109"
    INDEX 01 03:06:42
  TRACK 81 AUDIO
    TITLE "0:"
    INDEX 01 03:09:36
  TRACK 82 AUDIO
    TITLE "7:cjc037_0110"
    INDEX 01 03:12:72
  TRACK 83 AUDIO
    TITLE "0:"
    INDEX 01 03:15:19
  TRACK 84 AUDIO
    TITLE "4:cjc037_0111"
    INDEX 01 03:17:57
  TRACK 85 AUDIO
    TITLE "0:"
    INDEX 01 03:19:15
  TRACK 86 AUDIO
    TITLE "5:cjc037_0112"
    INDEX 01 03:19:68
  TRACK 87 AUDIO
    TITLE "0:"
    INDEX 01 03:23:31
  TRACK 88 AUDIO
    TITLE "6:cjc037_0113"
    INDEX 01 03:26:64
  TRACK 89 AUDIO
    TITLE "0:"
    INDEX 01 03:30:17
  TRACK 90 AUDIO
    TITLE "7:cjc037_0114"
    INDEX 01 03:33:53
  TRACK 91 AUDIO
    TITLE "0:"
    INDEX 01 03:36:33
  TRACK 92 AUDIO
    TITLE "4:cjc037_0115"
    INDEX 01 03:38:67
  TRACK 93 AUDIO
    TITLE "0:"
    INDEX 01 03:40:25
  TRACK 94 AUDIO
    TITLE "5:cjc037_0116"
    INDEX 01 03:40:74
  TRACK 95 AUDIO
    TITLE "0:"
    INDEX 01 03:44:17
  TRACK 96 AUDIO
    TITLE "6:cjc037_0117"
    INDEX 01 03:47:51
  TRACK 97 AUDIO
    TITLE "0:"
    INDEX 01 03:50:04
  TRACK 98 AUDIO
    TITLE "7:cjc037_0118"
    INDEX 01 03:53:38
  TRACK 99 AUDIO
    TITLE "0:"
    INDEX 01 03:55:35
  TRACK 100 AUDIO
    TITLE "4:cjc037_0119"
    INDEX 01 03:57:67
  TRACK 101 AUDIO
    TITLE "0:"
    INDEX 01 03:59:11
  TRACK 102 AUDIO
    TITLE "5:cjc037_0120"
    INDEX 01 03:59:68
  TRACK 103 AUDIO
    TITLE "0:"
    INDEX 01 04:03:01
  TRACK 104 AUDIO
    TITLE "6:cjc037_0121"
    INDEX 01 04:06:44
  TRACK 105 AUDIO
    TITLE "0:"
    INDEX 01 04:08:45
  TRACK 106 AUDIO
    TITLE "7:cjc037_0122"
    INDEX 01 04:12:06
  TRACK 107 AUDIO
    TITLE "0:"
    INDEX 01 04:13:56
  TRACK 108 AUDIO
    TITLE "4:cjc037_0123"
    INDEX 01 04:16:15
  TRACK 109 AUDIO
    TITLE "0:"
    INDEX 01 04:17:54
  TRACK 110 AUDIO
    TITLE "5:cjc037_0124"
    INDEX 01 04:18:30
  TRACK 111 AUDIO
    TITLE "0:"
    INDEX 01 04:20:60
  TRACK 112 AUDIO
    TITLE "6:cjc037_0125"
    INDEX 01 04:24:24
  TRACK 113 AUDIO
    TITLE "0:"
    INDEX 01 04:26:45
  TRACK 114 AUDIO
    TITLE "7:cjc037_0126"
    INDEX 01 04:30:06
  TRACK 115 AUDIO
    TITLE "0:"
    INDEX 01 04:31:72
  TRACK 116 AUDIO
    TITLE "4:cjc037_0127"
    INDEX 01 04:34:31
  TRACK 117 AUDIO
    TITLE "0:"
    INDEX 01 04:35:65
  TRACK 118 AUDIO
    TITLE "5:cjc037_0128"
    INDEX 01 04:36:43
  TRACK 119 AUDIO
    TITLE "0:"
    INDEX 01 04:41:03
  TRACK 120 AUDIO
    TITLE "6:cjc037_0129"
    INDEX 01 04:44:37
  TRACK 121 AUDIO
    TITLE "0:"
    INDEX 01 04:48:62
  TRACK 122 AUDIO
    TITLE "7:cjc037_0130"
    INDEX 01 04:52:21
  TRACK 123 AUDIO
    TITLE "0:"
    INDEX 01 04:55:58
  TRACK 124 AUDIO
    TITLE "4:cjc037_0131"
    INDEX 01 04:58:18
  TRACK 125 AUDIO
    TITLE "0:"
    INDEX 01 04:59:68
  TRACK 126 AUDIO
    TITLE "5:cjc037_0132"
    INDEX 01 05:00:46
  TRACK 127 AUDIO
    TITLE "0:"
    INDEX 01 05:05:70
  TRACK 128 AUDIO
    TITLE "6:cjc037_0133"
    INDEX 01 05:09:33
  TRACK 129 AUDIO
    TITLE "0:"
    INDEX 01 05:12:37
  TRACK 130 AUDIO
    TITLE "7:cjc037_0134"
    INDEX 01 05:15:71
  TRACK 131 AUDIO
    TITLE "0:"
    INDEX 01 05:18:34
